<svg xmlns="http://www.w3.org/2000/svg" viewBox="0 0 1024 1024" width="200" height="200">
  <rect width="1024" height="1024" rx="180" fill="#66ccff"/>
  <g transform="translate(102.4, 102.4) scale(0.8)">
    <path d="M510.520889 113.777778c2.56 1.080889 5.176889 1.991111 7.850667 2.616889 23.608889 4.096 37.774222 19.569778 38.684444 42.382222 0.853333 24.007111-11.946667 40.789333-35.726222 46.08a93.184 93.184 0 0 1-20.138667 2.218667c-64.682667 0.170667-129.308444 0-193.991111 0.284444-69.176889 0.341333-101.831111 31.345778-102.229333 100.408889-0.853333 137.671111-0.455111 275.285333 0 412.899555 0.113778 14.620444 2.275556 29.127111 6.428444 43.121778 11.434667 38.456889 43.804444 58.083556 94.037333 58.311111 78.734222 0.284444 157.525333 0 236.316445 0 57.344 0 114.688 0.170667 172.088889-0.170666 12.060444 0 24.120889-1.137778 35.896889-3.640889 41.528889-9.102222 66.389333-39.822222 67.128889-83.854222 0.739556-53.646222 0.170667-107.349333 0.455111-161.052445 0-8.760889 0.853333-17.521778 2.56-26.112a43.349333 43.349333 0 0 1 70.485333-25.031111c6.997333 5.802667 13.255111 12.629333 19.854222 19.000889v73.216c-1.137778 5.006222-1.934222 10.069333-2.332444 15.189333-0.739556 40.96-0.455111 81.806222-1.991111 122.652445-2.104889 55.637333-28.216889 98.531556-73.386667 129.024-18.090667 12.174222-39.537778 19.399111-59.392 28.899555H487.196444a123.448889 123.448889 0 0 0-16.839111-2.332444c-68.039111-0.455111-136.021333-0.398222-204.003555-1.137778-12.913778-0.170667-26.737778-1.080889-38.456889-5.688889-56.661333-22.129778-93.297778-62.976-108.544-122.481778-1.763556-6.883556-3.697778-13.767111-5.575111-20.650666V271.928889a19.000889 19.000889 0 0 0 2.389333-5.12c12.629333-77.198222 64.398222-131.868444 140.231111-147.911111 9.728-2.218667 19.683556-3.413333 29.525334-5.12h224.597333z" fill="#ffffff"/>
    <path d="M459.605333 356.864l56.775111 56.092444c-4.380444 4.721778-8.760889 9.784889-13.596444 14.677334-37.717333 38.058667-75.320889 76.117333-113.493333 113.720889-13.198222 12.970667-15.928889 26.851556-9.728 43.690666a116.622222 116.622222 0 0 0 67.299555 70.599111c23.096889 9.557333 33.28 7.509333 50.915556-10.183111l114.346666-114.858666c3.413333-3.413333 6.371556-7.395556 8.305778-9.557334l58.595556 58.993778c-8.704 8.760889-20.195556 19.626667-31.459556 30.833778-32.085333 31.914667-64.455111 63.544889-95.971555 96.085333-34.872889 35.84-75.662222 45.226667-122.538667 29.696-83.285333-27.648-136.192-97.848889-134.826667-177.948444-0.056889-23.153778 9.102222-45.454222 25.543111-61.781334 44.828444-45.340444 89.884444-90.510222 134.997334-135.566222 1.706667-1.820444 3.527111-3.299556 4.835555-4.551111zM577.649778 351.744L517.233778 297.528889c45.966222-46.364444 89.543111-91.420444 134.257778-135.224889 37.888-36.977778 83.399111-40.106667 129.820444-21.617778 66.389333 26.339556 109.169778 74.752 121.514667 146.659556 5.233778 30.492444-0.170667 61.212444-21.333334 83.740444-47.217778 50.346667-96.995556 98.190222-145.009777 146.432l-57.457778-58.595555 105.016889-101.717334c9.443556-9.102222 18.773333-18.318222 28.046222-27.648 10.638222-10.752 13.255111-23.267556 8.704-37.660444-11.548444-36.408889-36.352-60.416-70.030222-75.548445-21.845333-9.784889-38.570667 1.422222-53.361778 16.042667-37.262222 37.034667-74.24 74.467556-111.388445 111.672889-3.470222 3.413333-7.054222 6.542222-8.362666 7.736889z" fill="#ffffff"/>
    <path d="M548.920889 532.935111c-23.324444-0.796444-35.783111-9.329778-42.723556-24.689778-7.395556-16.497778-3.072-31.744 8.988445-44.259555 28.785778-29.639111 57.969778-58.936889 87.04-88.291556 7.850667-7.964444 15.928889-15.644444 24.007111-23.438222 19.626667-18.602667 40.618667-17.578667 57.856 2.958222 18.204444 21.731556 18.830222 33.393778-1.251556 54.272-36.067556 37.546667-72.817778 74.296889-110.250666 110.421334-7.395556 7.395556-18.773333 10.467556-23.665778 13.027555z" fill="#ffffff"/>
  </g>
</svg>